<svg xmlns="http://www.w3.org/2000/svg" width="1024" height="1024" viewBox="0 0 1024 1024" version="1.1"><path d="M 508.712 293.107 C 507.315 295.523, 498.320 311.225, 488.722 328 C 479.125 344.775, 469.186 362.025, 466.636 366.333 C 461.531 374.958, 461.114 376.888, 463.829 379.345 C 465.493 380.851, 471.871 381, 534.874 381 L 604.091 381 606.545 378.545 L 609 376.091 609 344 L 609 311.909 606.699 309.608 C 603.882 306.791, 586.473 299.877, 573.505 296.425 C 555.189 291.550, 544.897 289.949, 527.876 289.325 L 511.251 288.715 508.712 293.107 M 478 291.127 C 457.157 294.513, 432.964 301.629, 421.987 307.604 L 417 310.318 417 335.959 C 417 354.569, 417.329 361.929, 418.200 362.800 C 419.031 363.631, 424.206 364, 435.026 364 C 449.953 364, 450.744 363.899, 452.712 361.750 C 454.382 359.927, 468.123 337.007, 477.742 320 C 478.830 318.075, 482.923 310.926, 486.836 304.114 C 490.749 297.302, 493.710 291.339, 493.416 290.864 C 492.760 289.803, 485.378 289.929, 478 291.127 M 388.437 325.095 C 371.464 336.671, 355.152 351.857, 343.683 366.763 C 337.559 374.720, 336.321 377.477, 337.975 379.470 C 339.064 380.782, 343.571 381, 369.550 381 L 399.855 381 401.927 378.365 C 403.904 375.852, 404 374.521, 404 349.588 C 404 327.545, 403.756 323.096, 402.443 321.223 C 401.587 320, 400.096 319, 399.131 319 C 398.165 319, 393.353 321.743, 388.437 325.095 M 453 399.139 C 426.209 401.847, 406.016 424.141, 406.027 451 C 406.033 466.330, 410.947 478.612, 421.227 488.988 C 431.794 499.654, 444.344 505, 458.816 505 C 473.534 505, 484.172 500.630, 495.387 489.978 C 507.142 478.811, 512 467.560, 512 451.500 C 512 418.889, 485.989 395.805, 453 399.139 M 317.396 400.475 C 315.777 401.156, 313.918 402.884, 313.266 404.315 C 312.413 406.188, 312.064 419.246, 312.021 450.944 C 311.971 487.533, 312.209 495.565, 313.432 498.492 C 315.092 502.463, 318.851 504.411, 323.070 503.485 C 328.631 502.263, 328.931 501.116, 329.228 479.946 L 329.500 460.500 352.500 460.500 L 375.500 460.500 375.748 479 C 376.009 498.512, 376.522 501.005, 380.657 502.890 C 384.560 504.668, 386.952 504.201, 390.106 501.048 L 393.057 498.097 392.779 450.959 L 392.500 403.822 390.139 401.911 C 386.778 399.190, 380.924 399.387, 378.174 402.314 C 376.108 404.514, 376 405.525, 376 422.614 C 376 435.270, 375.644 440.956, 374.800 441.800 C 373.942 442.658, 367.541 443, 352.335 443 C 332.335 443, 331.009 442.885, 330.035 441.066 C 329.436 439.945, 329 431.821, 329 421.757 C 329 409.428, 328.637 403.890, 327.750 402.687 C 325.833 400.089, 320.849 399.024, 317.396 400.475 M 527.455 402.455 L 525 404.909 525 451.531 L 525 498.154 527.923 501.077 C 531.653 504.807, 536.105 504.986, 539.545 501.545 L 542 499.091 542 469.045 C 542 451.003, 542.375 439, 542.938 439 C 543.454 439, 549.030 447.212, 555.329 457.250 C 561.628 467.288, 568.084 477.294, 569.674 479.488 C 575.108 486.979, 581.141 486.532, 586.663 478.228 C 588.392 475.628, 594.183 466.300, 599.530 457.500 C 604.878 448.700, 609.872 440.841, 610.627 440.036 C 611.793 438.792, 612.002 442.934, 612.015 467.536 C 612.031 498.870, 612.262 500.399, 617.353 502.840 C 620.649 504.421, 624.280 503.720, 627.025 500.975 C 628.936 499.064, 629 497.463, 629 451.674 L 629 404.349 626.686 402.174 C 623.223 398.921, 617.127 399.194, 613.807 402.750 C 611.481 405.242, 594.793 431.608, 584.093 449.695 C 581.753 453.652, 579.264 457.366, 578.563 457.948 C 577.217 459.065, 573.056 452.912, 553.064 420.252 C 547.931 411.865, 542.605 403.878, 541.229 402.502 C 537.733 399.006, 530.927 398.982, 527.455 402.455 M 649.364 401.170 C 645.159 403.206, 645 405.076, 645 452.412 C 645 496.745, 645.045 497.788, 647.073 500.365 L 649.145 503 679.534 503 C 709.507 503, 709.950 502.970, 711.961 500.811 C 713.178 499.505, 714 497.262, 714 495.246 C 714 486.525, 710.627 485.496, 684.939 486.379 C 674.140 486.750, 664.561 486.769, 663.652 486.420 C 662.234 485.876, 662 483.959, 662 472.893 L 662 460 670.750 459.788 C 675.563 459.672, 685.070 459.538, 691.877 459.491 C 704.103 459.406, 704.284 459.371, 706.627 456.647 C 709.545 453.254, 709.664 449.114, 706.943 445.655 L 704.886 443.039 683.693 442.770 L 662.500 442.500 662.221 429.801 L 661.941 417.101 686.060 416.801 C 710.035 416.502, 710.191 416.486, 712.090 414.139 C 714.814 410.772, 714.568 405.477, 711.545 402.455 L 709.091 400 680.295 400.068 C 662.651 400.109, 650.673 400.536, 649.364 401.170 M 448.286 416.386 C 437.937 419.780, 430.689 426.173, 426.101 435.954 C 423.843 440.769, 423.500 442.818, 423.500 451.500 C 423.500 460.444, 423.798 462.106, 426.318 467.239 C 429.915 474.563, 436.976 481.625, 443.998 484.919 C 448.704 487.126, 450.875 487.500, 459 487.500 C 467.477 487.500, 469.142 487.185, 474.457 484.575 C 481.488 481.123, 488.074 474.679, 491.812 467.594 C 494.235 463.002, 494.500 461.466, 494.500 452 C 494.500 442.372, 494.257 441.020, 491.571 435.719 C 487.968 428.608, 480.738 421.685, 473.413 418.332 C 466.604 415.214, 454.674 414.290, 448.286 416.386 M 329.782 520.486 C 312.675 524.834, 297.824 538.184, 291.853 554.581 C 288.658 563.355, 288.640 579.982, 291.816 589.190 C 302.064 618.903, 333.783 633.294, 362.925 621.452 L 369.262 618.877 371.881 621.316 C 375.630 624.808, 378.144 625.886, 381.182 625.306 C 388.096 623.984, 390.557 615.279, 385.507 610.008 L 382.815 607.197 386.940 600.357 C 391.827 592.255, 393.839 586.027, 394.655 576.473 C 396.722 552.291, 382.293 529.919, 359.500 521.963 C 351.634 519.218, 337.527 518.517, 329.782 520.486 M 607.639 520.514 C 604.965 521.249, 600.706 523.130, 598.174 524.696 C 582.396 534.451, 579.308 557.540, 592.162 569.642 C 596.866 574.071, 602.405 576.604, 612.637 579.006 C 634.727 584.192, 638 586.236, 638 594.846 C 638 604.143, 630.047 609.641, 617.793 608.814 C 610.181 608.300, 604.858 605.886, 599.763 600.636 C 596.796 597.579, 595.220 596.718, 592.720 596.788 C 588.945 596.895, 584 601.711, 584 605.281 C 584 617.799, 608.736 628.870, 628.163 625.048 C 644.925 621.750, 654.930 610.769, 654.978 595.616 C 655.007 586.554, 653.475 581.821, 648.788 576.497 C 643.674 570.686, 637.133 567.674, 621.731 564.037 C 607.950 560.782, 604.692 559.239, 602.449 554.901 C 597.553 545.433, 605.850 536.073, 619.185 536.022 C 626.405 535.994, 629.339 537.136, 634.667 542.047 C 639.896 546.867, 643.027 547.127, 647.077 543.077 C 659.348 530.805, 630.421 514.256, 607.639 520.514 M 411.589 522.108 L 408.909 524.217 409.204 560.883 L 409.500 597.548 412.787 604.221 C 418.185 615.182, 428.692 622.762, 441.888 625.216 C 458.929 628.385, 477.119 618.652, 484.804 602.253 L 487.500 596.500 487.798 561.793 C 488.055 531.848, 487.881 526.671, 486.530 524.058 C 484.175 519.503, 478.443 518.763, 473.500 522.374 C 471.585 523.774, 471.479 525.293, 471 558.168 C 470.523 590.898, 470.400 592.687, 468.347 596.500 C 464.074 604.440, 457.643 608.250, 448.513 608.250 C 441.186 608.250, 435.561 605.718, 431.238 600.473 C 426.335 594.525, 426 591.818, 426 558.181 C 426 537.528, 425.627 526.276, 424.890 524.657 C 422.725 519.905, 416.023 518.621, 411.589 522.108 M 506.174 523.314 C 504.006 525.623, 504 525.749, 504 572.640 L 504 619.651 506.314 621.826 C 508.585 623.959, 509.200 624, 538.742 624 L 568.855 624 570.927 621.365 C 573.678 617.868, 573.547 613.745, 570.576 610.306 L 568.152 607.500 546.566 607.814 C 534.693 607.987, 524.071 607.840, 522.961 607.488 C 521.052 606.882, 520.958 606.135, 521.222 593.674 L 521.500 580.500 542.500 580 C 554.050 579.725, 564.030 579.156, 564.677 578.736 C 565.324 578.316, 566.363 576.431, 566.984 574.547 C 567.903 571.765, 567.818 570.548, 566.532 568.061 C 565.661 566.378, 564.848 564.910, 564.724 564.800 C 564.601 564.690, 554.825 564.353, 543 564.050 L 521.500 563.500 521.220 550.750 L 520.940 538 544.047 538 L 567.154 538 570.077 535.077 C 573.807 531.347, 573.986 526.895, 570.545 523.455 L 568.091 521 538.220 521 L 508.349 521 506.174 523.314 M 661.455 523.455 C 658.432 526.477, 658.186 531.772, 660.911 535.139 C 662.720 537.375, 663.543 537.518, 676.411 537.848 C 683.885 538.040, 690.031 538.265, 690.068 538.348 C 690.105 538.432, 690.351 556.950, 690.614 579.500 L 691.092 620.500 693.602 622.750 C 696.868 625.679, 701.174 625.615, 704.694 622.585 L 707.500 620.171 707.155 579.085 L 706.809 538 709.155 537.938 C 710.445 537.904, 715.795 537.928, 721.045 537.991 C 734.865 538.158, 738.904 536.115, 738.968 528.924 C 738.990 526.451, 738.286 524.678, 736.686 523.174 C 734.400 521.027, 733.936 521, 699.140 521 L 663.909 521 661.455 523.455 M 334.281 536.907 C 324.249 539.487, 314.552 547.077, 310.073 555.856 C 305.754 564.323, 305.634 578.864, 309.807 588.297 C 315.890 602.049, 332.716 610.818, 347.704 608.047 C 350.841 607.467, 353.836 606.564, 354.360 606.040 C 354.963 605.437, 353.054 602.674, 349.156 598.508 C 344.119 593.123, 343 591.311, 343 588.536 C 343 586.081, 343.713 584.584, 345.582 583.114 C 351.301 578.616, 354.345 579.660, 363.935 589.411 C 369.872 595.448, 370.675 595.461, 373.722 589.573 C 379.387 578.622, 379.104 563.376, 373.052 553.585 C 369.647 548.074, 360.551 540.379, 355.286 538.553 C 349.621 536.589, 338.813 535.742, 334.281 536.907 M 418.861 644.912 L 416.500 646.823 416.286 677.010 C 416.168 693.613, 416.413 708.840, 416.829 710.848 C 417.741 715.249, 420.875 717.204, 436.400 723.054 C 457.380 730.960, 480.990 735.725, 501.378 736.167 C 513.960 736.440, 513.617 736.651, 520.856 724.236 C 534.495 700.846, 562.157 651.224, 562.649 649.264 C 563.028 647.753, 562.606 646.223, 561.464 644.960 C 559.735 643.049, 557.946 643, 490.456 643 C 423.778 643, 421.134 643.071, 418.861 644.912 M 624.115 644.750 C 622.067 646.451, 622.006 647.285, 621.947 674.407 C 621.875 707.549, 621.778 707.219, 630.278 702.722 C 644.196 695.359, 667.709 674.296, 679.235 658.867 C 686.502 649.138, 687.718 646.570, 686.025 644.530 C 684.938 643.221, 680.535 643, 655.488 643 C 629.085 643, 626.015 643.171, 624.115 644.750 M 571.984 662.750 C 568.652 666.974, 532 731.854, 532 733.526 C 532 734.337, 532.563 735.044, 533.250 735.097 C 539.189 735.557, 557.235 732.549, 571 728.803 C 585.769 724.784, 607.251 715.394, 608.375 712.465 C 608.719 711.569, 609 700.298, 609 687.418 C 609 657.654, 610.662 660, 589.576 660 L 574.152 660 571.984 662.750" stroke="none" fill="#335963" fill-rule="evenodd"/></svg>